/* XPM */
static char *_8d08c1ed1d04cf58fbff0d3d1b42ee9iObqoTX5LvFZ4bdu[] = {
/* columns rows colors chars-per-pixel */
"64 64 195 2 ",
"   c #A77600",
".  c #A87700",
"X  c #AB7B00",
"o  c #AE7F08",
"O  c #B07F00",
"+  c #AF810C",
"@  c #B18105",
"#  c #BA8700",
"$  c #BB8800",
"%  c #B1820B",
"&  c #AF8211",
"*  c #B38513",
"=  c #B68812",
"-  c #BB8B10",
";  c #B4891D",
":  c #BA8C18",
">  c #BD901D",
",  c #B68C24",
"<  c #B88F27",
"1  c #B78F2B",
"2  c #B9922E",
"3  c #BA9026",
"4  c #B68F32",
"5  c #BA9433",
"6  c #BC9639",
"7  c #BE993D",
"8  c #CA9300",
"9  c #D69D00",
"0  c #C99A1C",
"q  c #DDA200",
"w  c #DBA615",
"e  c #E1A600",
"r  c #E4A902",
"t  c #EBAD00",
"y  c #EDB000",
"u  c #F4B500",
"i  c #F8B700",
"p  c #F8B902",
"a  c #F9BB0D",
"s  c #F8BD13",
"d  c #F8BE1A",
"f  c #C29625",
"g  c #C39827",
"h  c #C4992B",
"j  c #C89D2F",
"k  c #C99F32",
"l  c #C69C32",
"z  c #CFA32F",
"x  c #D4A527",
"c  c #CAA032",
"v  c #CDA53B",
"b  c #D3AA3C",
"n  c #D5A935",
"m  c #DEB23D",
"M  c #F8C01E",
"N  c #F6C026",
"B  c #F8C124",
"V  c #F8C32C",
"C  c #F8C532",
"Z  c #F8C73A",
"A  c #F9C83D",
"S  c #BF9D48",
"D  c #C09F4F",
"F  c #CBA544",
"G  c #C3A14E",
"H  c #D7AF45",
"J  c #D5AF4F",
"K  c #D7B046",
"L  c #DCB64E",
"P  c #C3A354",
"I  c #C5A65A",
"U  c #C7A95F",
"Y  c #CCAA54",
"T  c #DDB750",
"R  c #E3B741",
"E  c #E4BD53",
"W  c #E2BE59",
"Q  c #C6AA63",
"!  c #CAAD65",
"~  c #C9AE6B",
"^  c #CDB16A",
"/  c #DEBD64",
"(  c #D6B96F",
")  c #C8AF70",
"_  c #CDB372",
"`  c #CFB77B",
"'  c #D1B77A",
"]  c #D2B97D",
"[  c #D9BD76",
"{  c #F9C943",
"}  c #F9CC4A",
"|  c #E7C35F",
" . c #F9CE52",
".. c #F9CF59",
"X. c #F9D05C",
"o. c #E9C663",
"O. c #EECB6A",
"+. c #EBC865",
"@. c #F1CF6E",
"#. c #F9D262",
"$. c #F1D06F",
"%. c #F9D56B",
"&. c #E2C476",
"*. c #F4D272",
"=. c #F9D774",
"-. c #F9D877",
";. c #F9D97A",
":. c #CFB982",
">. c #D2BA80",
",. c #D3BD8B",
"<. c #D8C28C",
"1. c #D5C08E",
"2. c #D6C293",
"3. c #DAC693",
"4. c #DDCA9E",
"5. c #D6C49A",
"6. c #FADC82",
"7. c #FADE8B",
"8. c #FADF90",
"9. c #FAE29B",
"0. c #FBE296",
"q. c #DACAA2",
"w. c #D9CCAE",
"e. c #DFD0AD",
"r. c #DCCEB0",
"t. c #DED1B2",
"y. c #E1CFA6",
"u. c #E1D0A9",
"i. c #E1D0A7",
"p. c #E1D4B5",
"a. c #E1D6BB",
"s. c #E5D9BC",
"d. c #E8D9B8",
"f. c #FBE7AB",
"g. c #FBE8AE",
"h. c #FBE4A2",
"j. c #FCECBD",
"k. c #FCEAB6",
"l. c #DED5C0",
"z. c #E1D7C1",
"x. c #E7DFCC",
"c. c #E7DDC6",
"v. c #ECE2CA",
"b. c #FCEEC5",
"n. c #FEF0CC",
"m. c #E5E1D6",
"M. c #EDE5D3",
"N. c #EBE6DB",
"B. c #EDE9DE",
"V. c #EAE5D8",
"C. c #F2ECDD",
"Z. c #F0E8D5",
"A. c #FDF5DC",
"S. c #FEF3D2",
"D. c #E7E7E7",
"F. c #EDEAE3",
"G. c #ECECEC",
"H. c #F2EEE4",
"J. c #F1EFEA",
"K. c #F5F1E6",
"L. c #FEF6E2",
"P. c #FEF8E7",
"I. c #F3F1EB",
"U. c #FEFAED",
"Y. c #FAF5EA",
"T. c #EFEFF0",
"R. c #EFF0F1",
"E. c gray95",
"W. c #F3F3F3",
"Q. c #F2F2F3",
"!. c #F1F1F1",
"~. c #F4F4F4",
"^. c gray96",
"/. c #F4F5F5",
"(. c #F6F6F6",
"). c gray97",
"_. c #F6F6F7",
"`. c #F5F5F6",
"'. c #F3F3F3",
"]. c #F9F6F0",
"[. c #FDFAF3",
"{. c #F6F6F9",
"}. c #F6F7F8",
"|. c #F7F8F9",
" X c #F8F8F8",
".X c #F9F9F9",
"XX c #F8F8F9",
"oX c gray98",
"OX c #FBFBFB",
"+X c #F9F9FA",
"@X c gray99",
"#X c #FDFDFD",
"$X c #FDFDFD",
"%X c #FEFEFE",
"&X c #FCFCFC",
/* pixels */
"W.#XD.W.#XD.W.#XG.G.#XG.G.#XW.D.#XQ.D.#X~.D.oX).D.). XD.~.#XD.W.#XD.W.#XD.G.#XG.G.#XR.D.#XW.D.#XW.D.#X~.D.oX}.D.~.oXD.Q.oXD.W.oX",
"W.W.W.W.~.~.W.~.W.W.Q.W.W.~.W.W.Q.Q.W.Q.W.W.W.W.W.W.W.W.~.~.W.W.W.W.W.~.W.W.~.Q.Q.Q.W.W.W.W.W.W.Q.W.~.Q.W.~.W.W.W.W.W.W.W.W.W.W.",
"~.D.oXW.D.oX~.D.~.oXD.}.oXD.Q.OXD.Q.#XG.R.#XG.G.#XJ.G.#XW.D.#XW.D.#X~.D.oX~.D.oX XD.(.oXD.Q.#XD.Q.OXG.J.#XG.G.OXG.G.#XW.D.#XW.D.",
"~.oXD.W.OXG.W.oXG.W.oXI.G.oXW.G. XQ.G. XW.G.).).G.Q.).G.~.oXD.Q.oXG.W.oXG.W.#XG.J.oXR.G.oXW.G.oXQ.G.OX~.D.oX}.G.~.oXG.~.oXG.~.oX",
"~.~.G.W.~.W.W.~.G.W.~.W.W.~.W.W.).W.J.Q.W.R.(.Q.R.Q.~.R.Q.~.T.Q.}.R.Q.~.W.W.~.W.Q. XR.R. XQ.T.`.Q.R.~.Q.W.'.~.W.~.~.G.W.~.J.~.}.",
"~.D.oXW.D.oX~.D.oXoXD.~.oXD.Q.oXG.Q.#XG.R.#XG.R.#XR.T.#XQ.G.#XQ.G.&X~.G.oX~.D.oXXXD. XoXD.Q.OXG.W.#XD.W.#XG.J.#XG.G.#XW.G.#XW.D.",
"~.oXG.W.oXG.W.oXG.W.oXW.G. XW.G. XQ.G. XW.J. XQ.G.H.z.a.s.z.a.s.z.s.a.s.a.s.c.a.a.Z.R.R. XR.J.XXW.G.).~.G.~.~.G.~.oXG.~.oXG.Q.oX",
"~.~.W.W.~.W.G.oXW.G.~.W.R.oX~.G. XQ.G. XQ.G.`.`.R.q.% o + + % + + + + + + + + + o _ R.R. XW.R. XW.G.).~.G.).).G.~.~.G.~.}.G.~.~.",
"~.D.oXW.D.oXoXD.).oXD.~.#XD.~.OXD.Q.#XD.R.].N.N.'.5.+ @ @ o @ @ @ @ + @ @ @ @ X X I J.I.m.H. XD.W.oXD.W.#XG.G.#XG.G.#XG.G.#XW.D.",
"~.}.J.W.~.T.W.~.W.G.~.W.W.~.Q.I. XQ.R.).J.I 1 5 2 v o.o.+.+.+.+.o.o.o.o.o.+.+.3 X * 2 5 1 S x.`.W.W.~.~.W.~.~.T.~. XT.~.~.W.~.~.",
"Q.oXG.W.OXG.W.oXG.G.oXW.G.OXW.G. XQ.T.OXJ.2 . X X h ;.;.;.;.;.;.;.;.;.;.;.;.;.h X X X X X o z.#XW.G.oX~.D.oX~.G.~.).G.}.oXD.Q.oX",
"Q.D.#X~.D.OX~.D.oXoXD.~.OXD.Q.OXD.Q.H.) ! J K K K R C C C C V C C C C C V C C R K K K v o X G ! s.#XD.R.#XG.I.#XG.R.#XJ.G.#XW.D.",
"~.~.W.W.~.W.W.~.W.'.~.W.W.~.W.R.}.}.z.o X o.;.;.6. .p p p p p p p p p p p p p  .6.6.;.o.O X X . 2.{.`.Q.W.'.'.'.~.~.W.~.~.W.~.~.",
"~.oXD.T.OXG.G.#XG.G.oXR.G.OXW.G.Z.q.:.l k @.;.#.} Z p u q q q q q q q q q u p C } #.;.O.k g o X P 5.c.Q.D.oX~.D.~.oXD.~.oXD.~.oX",
"'.D.OX~.D.oX~.D.oXoXD.~.oXD.~.&X,.. : *.-.;.;.Z i p p t @ X X X X X X X @ y p p p C ;.;.;.*.: X X X P R.#XG.G.oXW.G.#XG.G.oXW.D.",
"'.W.'.'.W.'.'.W.W.W.W.W.W.W.B.V.>.= g *.-.%.#.V p u y r - = = = = = = = - r y u p V %.%.-.*.g = @ X S x.V.W.W.W.W.W.W.W.W.W.W.W.",
"'.OXD.'.#XG.I.#XG.G.#XW.D.#X~ & v @.*.-.=.B a p p e @ - +.*.@.@.@.@.$.$.+.- @ q p p a M =.;.$.$.l X + * 6 H. XD.}. XD.).oXD.~.#X",
"W.G.oX~.G.).}.D.).).G.~.oXD.P . k ;.-.=.*.d i i u q X - @.-.-.;.;.;.;.-.$.= X q u p p M %.=.;.;.c X X X , m.W.OXR.G.oXR.J.oXQ.G.",
"W.T.~.'.W.~.~.R.~.~.W.~.~.J.P X k ;.%.N M p i 9 $ 0 W E B B #.;.-.;.#.B B E | 0 $ q p a B B %.;.k X X X , N.W.).W.R.~.W.W.~.W.R.",
"W.OXD.'.OXG.T.#XG.G.#XG.T.#XI . k ;.#.a p p p 8 X h ;.%.a u X.;.=.;. .p a %.;.h X 8 p p u p #.;.k X X X , K.oXD. XoXD.).oXD.W.#X",
"W.G. XQ.G.oX~.G. X).G.J.1.' ] >.&.;.#.p i q 8 x b m { C p p V A X.;.%.A A A A w 8 8 9 q p a X.;.W v g X * _ ] N.R.T.).W.G.).W.G.",
"W.R.~.W.G.~.~.G.~.~.T.B., X i.#Xn.-.#.p u # X K ;. .p p p p p i A ;.;.;.%.s u p p q X # u p X.;.;.;.T X X X o p.Q.J.).W.R.).Q.J.",
"W.&XG.W.#XG.T.#XG.T.#XN., X i.#XS.9.;.a u # X H 6. .i p p i p p V X.#.;.=.V M a p 9 X # u a #.;.;.;.L X X X @ w.OXoXD.).#XD.Q.#X",
"'.G.~.~.I.~.~.G.~.~.R.B., X i.#X#X&Xn.a u # X H ;.} p i p p u p p u B -.;.=.=.B p 9 X # y a #.;.;.;.E X X X o a.Q.T.~.W.R.~.W.R.",
"W.G. X~.G.~.~.D.oX XG.B.< X y.#X#X#Xn.s u $ X K ;...a a i p i p p u M %.%.;.-.C a q X # y a #.;.;.;.L @ X X + d.R.T.OXW.G.oXW.G.",
"'.&XD.W.#XG.W.#XG.G.#XN., X i.#X#X#Xn.a u $ X H ;.=.#...a p p i p p p s d %.;.%.%.b X # u a X.;.;.;.L X X X o w.XXoXD.~.oXD.Q.OX",
"W.W.~.'.W.~.W.W.~.~.W.B., X i.#X#X#Xn.s y $ X H ;.;.;.%.a p p p p p i p a %.;.-.;.K X $ u p #.;.-.;.L X X X o t.Q.W.Q.W.W.~.W.W.",
"W.G.oX~.D. X~.G. X~.G.B.< X i.#X#X#Xn.a u # X [ S.f.;.=. .} s p p p p i u B V #.;.K X $ u a #.;.;.;.L X @ X + d.T.T.OXR.G.#XQ.D.",
"W.oXD.W.&XG.G.#XG.G.&XN., X i.#X#X#Xn.a u $ X 3.#Xn.-.-.;.;.B u p i p p p i p  .6.K X $ u a X.;.;.;.L @ X X @ w.OXoXD.}.oXD.Q.oX",
"W.W.W.W.W.W.W.~.Q.~.~.B., X i.#X#X#Xn.s u $ X 3.#XL.g.h.;.-.{ C s p i p p p i C } x X $ u a #.;.;.;.L X X X + p.~.~.Q.Q.W.W.W.~.",
"W.D.&XW.D.oX~.D. X XD.B.< X q.#X#X#Xn.a u $ X 3.#X#X#XP.6.-.;.;.A i p p u p p i p 9 X $ u p #.;.;.;.L X X X o s.T.G.#XJ.D.#XW.D.",
"W. XG.W.OXG.W.oXG.R.&XB., X e.#X#X#Xn.s u $ X 3.#X#X#X[.9.7.;.;.} s a p p p i p p q X $ y a #.;.-.;.L @ X X o r.+X}.G.~.oXG.~.oX",
"~.~.G.W.~.W.W.~.W.W.}.N.< X i.#X#X#Xn.s u $ X 3.#X#X#X#X[.[.0.;.=.=. .p p p p i p 9 X $ u p X.;.;.;.T X X X + t././.!.'.'.T.'./.",
"'.D.OXW.D.OX~.D.~.oXD.B.< X y.OX#X#Xn.a u # X 3.#X#X#X#X#X#X9.;.;.;.X.a p p p p p 9 X $ u a #.;.=.;.T X @ X + p.R.G.OXT.G.#XT.G.",
"~.oXG.W.oXG.G.oXT.G.oXN., X / 0.j.#Xn.a u # X 2.#X#X#X#X#X#XP.L.f.;.*.X. .a i p p q X $ u a #.;.;.;.T X X X + r. X XG./. XG.'. X",
"~.~.W.W.~.W.W.oXW.W.oXN., X L ;.g.#Xn.s u # X 3.#X#X#X#X#X#X#X#Xk.=.;.;.*.s i i p 9 X $ u p #.;.;.;.L @ X X + r././.T.'./.G.'. X",
"W.D.#X~.D.oXoXD.~.oXD.B.3 X T ;.0.k.8.a u $ X 3.#X#X#X#X#X#X#X#XA.b.f.;.=.} { s p 9 X $ u p #.;.;.;.L @ X X + d.T.G.OXT.G.OXI.G.",
"W.~.W.'.~.W.W.~.W.G.oXB., X T ;.-.-.#.p u $ X 3.#X#X#X#X#X#X#X#X#X#XS.-.-.;.;.V u 9 X $ u a #.-.;.;.L X X X + e. X'.T.'./.T.'. X",
"W.oXG.W.oXG.W.oXT.T.oXN., X T ;.;.;.#.p u $ X 3.#X#X#X#X#X#X#X#X#X#XP.h.9.;.;.{ B w X $ u a #.;.=.;.L X @ X + r. X XG. X XG.'. X",
"W.D.oXW.D.oX~.D.}.oXD.B.3 X T ;.-.;.#.a u $ X 3.#X#X#X#X#X#X#X#X#X#X#X#XU.7.-.-.;.H X $ y p #.-.;.;.T @ X X + p.T.G.OXT.G.OXW.D.",
"W.~.W.W.~.W.W.~.W.W.~.B., X L ;.;.;.#.p u $ X 2.#X#X#X#X#X#X#X#X#X#X#X#X[.0.6.;.;.K X $ u a #.;.;.;.L @ X X @ t.~.'.T.'.'.T.'.'.",
"W.oXD.W.OXG.I.oXG.G.&XN., X T ;.-.;.X.a u $ X 3.#X#X#X#X#X#X#X#X#X#X#X#X#X[.U.9.;.K X $ u p X.;.;.;.L X X X o w. X XG.~. XG.'.OX",
"W.D.OX~.D.oX}.D. X XD.F.1 X T ;.-.;.#.p u $ X 3.#X#X#X#X#X#X#X#X#X#X#X#X#X#X#Xh.-.H X $ u a #.;.=.;.L X X @ + s.R.G.&XT.G.&XT.G.",
"W.W.W.W.Q.W.Q.~.W.W.~.J.w.i.Y f K ;.#.a i r e c P <.#X#X#X#X#X#X#X#X#X#X#X#X#X( f 0 e r i p #.;.K g : X ; 5.e.B.~.'.'.'.'.I.'.'.",
"~.oXD.W.#XG.R.#XG.G.#XW.T.#XI   c ;.#.p i p p 8 . I #X#X#X#X#X#X#X#X#X#X#X#X#XI . 8 p p p p #.;.c X X X , K. XG. X XG.'.+XD.~.&X",
"W.G.oX~.D.oXoXD.oXoXD.~.oXD.P X c ;.%.Z C a p e 8 z <.4.[.#X#X#X#X#X#X#X[.y.<.' ^ &.=.#.Z A %.;.c X X X , m.R.OXT.G..XT.G.OXR.G.",
"W.W.~.W.W.~.W.W.~.~.G.W.Q.W.P   c ;.;.;.*.d i i p q . , I.#X#X#X#X#X#X#XK., . i.#X#X#XL.;.;.;.;.c X X X , N.'./.T.I. X'.'.'.'.R.",
"W.oXD.W.#XG.G.oXG.G.#XW.D.oX' 5 F o.+.-.-.V d a p e # 0 d.v.v.x.v.v.v.v.d.D 6 d.#X#X#XP.9.8.O.| h X & 5 P I. XD. XOXD.'.OXG.'.OX",
"W.G.oXW.G.oX~.G.~.oXG.~. XG.I.'.,.X > *.-.=.*.C p p u t % % o * + + % @ , Z.[.#X#X#X#X#XOXY.6 X X X S D.'.G.I.oXG.T.).I.G. XW.G.",
"W.G.~.W.G. X~.G.~.~.G.~.~.R.Q.oX2.+ 3 @.*.=.;.Z p p p y # O O O @ & * @ < C.#X#X#X#X#X#X[.C.5 X + + Q '. XI.W. XT.R. XW.R. XW.T.",
"'.#XD.W.#XG.W.#XG.I.#XT.G.#XW.D.I.c.5.3 > +.;.%.#.{ p i t t t t +.M.M.M.Z.[.#X#X#X#X#XZ.l 5 + X ) t.C.'.D.oX XD.).).D.~.oXD.'.OX",
"W.G. X~.G.~.W.G.~.~.T.~.~.G.W.oXT.`.v.+ o o.;.;.;. .p i i p i p 6.#X#X#X#X#X#X#X#X#X#Xv.o X X X 5.OXT.W. XT.T. XW.T.oXW.T. XW.T.",
"W.G.oXW.G.~.~.G.}.}.G.~.oXG.W.).G.~.H.5.,.F c c k m } } } } } } ;.g.b.#X#X#X#X4.^ ^ ^ P o @ _ 2.M.oXG.W. XG.W. XT.T.OXR.G.).'.T.",
"W.#XD.W.#XG.G.#XG.G.#XI.G.#XW.D.oXW.D.#XI.4 . X   h ;.;.;.;.;.;.;.=.9.OX#X#X#XI X X . . X + l.#X~.D.oX'.D.oXoXD. XoXD./.OXD.'.OX",
"W.W.~.W.W.~.~.W.~.~.W.'.'.W.~.~.R.W.~.R.J.' P P I Y L T T T L T T T o.q.i.y.y.6 X , I I P U V.W.W.~.R.W.~.'.W.~.I.R. XI.T. X'.T.",
"W.D.oXW.D.oX~.G.~.oXD.~.).G.~.oXG.W.OXG.J.oXG.G.OXq.. X X X X X X X X X X X X X X Q ~.].D.W.oXG.W.oXG.W.OXG.G.OXT.T.OXT.G.OXI.G.",
"~.oXD.W.#XG.G.#XG.G.#XG.G.#XW.D.oX'.D.oX~.D.). XG.e., , , , , , < , , , , , , , ; >.W.G.OXW.D.&X'.D.OX~.D. X XD. X XD. X XD.~.&X",
"W.W.~.~.W.~.~.W.~.~.W.Q.~.W.W.W.W.'.~.'.'.~.W.'.W.G.N.B.N.N.B.N.V.B.B.N.B.N.V.B.B.F.'.'.W.W.'.'.'.'.W.'.'.W.W.'.'.R.~.~.'.~.'.R.",
"W.D.oX~.D.oX~.D.oXoXD.~.oXD.~.oXD.'.&XD.W.#XG.T.&XG.T.&XI.G.#X~.D.#X~.D.oX~.D.oX XD.~. XD.'.oXD.W.oXG.T.&XG.R.&XG.G.OXI.G.#XR.G.",
"~.oXD.W.#XG.W.oXG.G.#XW.G.oXW.G.oX'.G.oX~.D.oX~.D. XoXD.~.oXD.W.OXG.W.oXG.W.#XG.T.OXR.G.OXW.G.oX'.D. X'.G. X XD. X XG.'.OXD.'.oX",
"~.~.W.W.~.W.W.~.W.W.~.~.W.~.W.W.'.'.W.'.W.W.~.~.'.~.~.W.'.~.W.W.'.W.W.~.W.W.~.W.'.~.W.W.'.'.'.~.'.W.'.'.R.~.~.W.~.~.I.'.'.W.'.'.",
"W.D.oXW.D.oX~.D.oXoXD.~.oXD.W.oXD.W.OXG.R.#XG.G.#XG.G.&XW.D.OXW.D.OX~.D.oX~.D.~. XD.~.oXD.'.OXD.'.OXG.T.&XG.G.#XG.G.&XT.G.OX'.D.",
"~.oXG.W.oXG.R.oXG.J.oXG.G.oXW.G.oXW.G. X'.G. X XG. X XG.~.oXG.'.oXG.W.).G.G.oXW.R.oXR.G.OXI.G.OX'.G. X'.G. X~.G. X XG.~. XG.'.oX",
"W.~.G.W.oXG.W.oXT.R.oXW.G.).W.G. X'.G. X'.G.~.~.G.~.~.G.~.).G.'.oXG.W.oXT.W.oXG.R. XI.T.OXR.G. X'.G. X'.G. X~.G. X~.G.'. XG.'. X"
};
