/* XPM */
static char *d6fb87e48c7f4311a114388ebd7f59b1jYpiH4ZX5OfhcND5[] = {
/* columns rows colors chars-per-pixel */
"54 64 181 2 ",
"   c None",
".  c #050505",
"X  c #0B0706",
"o  c #0E0907",
"O  c #070808",
"+  c #0C0C0C",
"@  c #100A07",
"#  c #120D0B",
"$  c #180F0C",
"%  c #13100E",
"&  c #1C130D",
"*  c #0F1010",
"=  c #141415",
"-  c #1B1514",
";  c #1D1817",
":  c #151618",
">  c #1E1619",
",  c #171819",
"<  c #1B1C1D",
"1  c #291806",
"2  c #221612",
"3  c #281410",
"4  c #221915",
"5  c #2C1B15",
"6  c #21161B",
"7  c #241A1D",
"8  c #2C1D1C",
"9  c #321E17",
"0  c #321E1B",
"q  c #3A260C",
"w  c #2E211C",
"e  c #25211F",
"r  c #33231D",
"t  c #3A221D",
"y  c #3C2D1A",
"u  c #362815",
"i  c #1D1F20",
"p  c #241E20",
"a  c #291E22",
"s  c #331F21",
"d  c #1F2021",
"f  c #222424",
"g  c #2C2223",
"h  c #252728",
"j  c #262929",
"k  c #2B2D2D",
"l  c #252827",
"z  c #352522",
"x  c #3B2621",
"c  c #372821",
"v  c #3C2923",
"b  c #362B2E",
"n  c #3B2C2B",
"m  c #2C302F",
"M  c #38312E",
"N  c #2D2F30",
"B  c #372C30",
"V  c #2E3131",
"C  c #323535",
"Z  c #3B3235",
"A  c #343739",
"S  c #363A3A",
"D  c #393D3E",
"F  c #383739",
"G  c #41280B",
"H  c #4B380D",
"J  c #47221A",
"K  c #5B271B",
"L  c #56291E",
"P  c #433418",
"I  c #44361B",
"U  c #533E1D",
"Y  c #6C281A",
"T  c #422623",
"R  c #442B24",
"E  c #4C2C26",
"W  c #442E28",
"Q  c #4B2F28",
"!  c #512F27",
"~  c #502F28",
"^  c #4C312A",
"/  c #463127",
"(  c #513127",
")  c #523F20",
"_  c #523129",
"`  c #56322A",
"'  c #54322A",
"]  c #5A352B",
"[  c #53392D",
"{  c #5C3A2E",
"}  c #443A34",
"|  c #443435",
" . c #5C3D30",
".. c #503E34",
"X. c #642E21",
"o. c #60392D",
"O. c #6C392C",
"+. c #7D3322",
"@. c #613E31",
"#. c #3A403F",
"$. c #58400B",
"%. c #55421C",
"&. c #5F4B1E",
"*. c #61470C",
"=. c #60491D",
"-. c #6B521E",
";. c #75591A",
":. c #795C1D",
">. c #725410",
",. c #534225",
"<. c #5E4233",
"1. c #624E23",
"2. c #6B422C",
"3. c #6B5524",
"4. c #63512B",
"5. c #715E2F",
"6. c #795E23",
"7. c #634233",
"8. c #754932",
"9. c #7E652D",
"0. c #796639",
"q. c #3B3F40",
"w. c #3B4040",
"e. c #3D4242",
"r. c #3D4242",
"t. c #404646",
"y. c #404546",
"u. c #414545",
"i. c #434949",
"p. c #444B4A",
"a. c #484B4C",
"s. c #574A45",
"d. c #4E5555",
"f. c #525655",
"g. c #555C5C",
"h. c #565A5B",
"j. c #704A40",
"k. c #7E5842",
"l. c #5B6464",
"z. c #843727",
"x. c #9E3B26",
"c. c #8B421D",
"v. c #A5401F",
"b. c #8F6C1E",
"n. c #A7631D",
"m. c #884B20",
"M. c #894F32",
"N. c #A74726",
"B. c #AB4024",
"V. c #B54A2D",
"C. c #AB552A",
"Z. c #B3562B",
"A. c #B15131",
"S. c #846828",
"D. c #936F20",
"F. c #957121",
"G. c #90712C",
"H. c #8A6E30",
"J. c #8D7235",
"K. c #AC652B",
"L. c #A67D22",
"P. c #DC5D29",
"I. c #D25926",
"U. c #EF5923",
"Y. c #C46825",
"T. c #D36A29",
"R. c #CE7724",
"E. c #FA7629",
"W. c #8F7D4F",
"Q. c #AB8224",
"!. c #A88536",
"~. c #BC953D",
"^. c #FF8C2C",
"/. c #FF942D",
"(. c #AE8D41",
"). c #B39248",
"_. c #AB9357",
"`. c #B29A5E",
"'. c #C7A557",
"]. c #CAAC68",
"[. c #D2B167",
/* pixels */
"                                                                                                            ",
"                                        , : , : , f d < , < < , : <                                         ",
"                                  f i e k , < h A u.D S C C C d , V f < <                                   ",
"                              : < r.e.A C < l a.r.D S A C C C < h S C C C , ,                               ",
"                          f d , < u.D C C h h u.D A C C C C C d #.i.S C k , , f <                           ",
"                      l j A A h < A A C k h f S C A C C C C C e S #.C C C , h C V h d                       ",
"                    j e.u.S A C < l C C N j p A C C C C C V j < k A C C j < C C C C k d                     ",
"                  = C i.D C C V f < N N N j < k C A A C j h < , V C C C d j C C C C C l :                   ",
"                j k j r.#.C C V k < h k f < = < f f f f , : , : e h A j i e.S A A A k h l e                 ",
"              l w.w.m j C C C V k , - i i < , i i i i p f f h , d h l , < i.D A C k f k C V d               ",
"              k r.A A f 7 k C k f : < p f p 6 7 p 7 7 a a a a a j C j j < k q.A V d f C C C f               ",
"            k S S A C V < < k f , i i f p a T E T T 0 t E T E ^ z 8 k h h < h A < < k C C A V d             ",
"            h S C C C C f , < d d f 6 a E E { { ] ~ T R ] ` _ <.~ R 8 p S k i i , e V V A C A d             ",
"          = < C C A C C d , < f f a 8 ~ o.] ` { ] ] R T ] ' Q / ] ` E 8 g F q.N , f S A A C C e :           ",
"          , < f N A C k d , < d z [ r ` ~ E ^ ] _ _ t c ( / r v ' ' ( r E b h.p.V k r.A C C f < ,           ",
"        : k A , < k k k < d f , r <.r R 5 r 4 5 u 4 2 4 2 4 4 - 5 4 r r [ s V g.D A r.#.C f < j f :         ",
"        f r.r.V i d f i < i a a ~ @.c E I !.D %.G.i H %., H I < H u 0 w  .E b f.D A w.D l d j A C <         ",
"        l e.D S D j < , i f a T @. .c / ) '.f.=.(.f -.J.f *.,., *.y r w  .] E b d.r.D V j V A V C f         ",
"      < C A A A A C d i f p 8 E @. .z E ,.[.f.1.].r.;._.S D.0.< >.H z w { ] ~ 0 F l.S D r.S A ..} A <       ",
"      f S C C A A A f , i a E ! {  .z W ,.[.f.4.].i.6.`.S D.W.j L.U 0 8  .' ` ~ | g.S #.p.S A C.8.V i       ",
"      i } <.A V A N i d p T ~ ' { <.r / ,.[.a.4.].q.9._.V b.9., Q.) 0 r ] ` ` ] Q Z f.q.i.w.A M.7.V L       ",
"      h 2.Z./  .V i i p s ! ] ~ ] <.c ^ ,.'.<.1.).k ;.H.< b.5.< Q.U 0 r ` ` ` ` ~ v y.p.w.p.q.V ] v +.      ",
"    f p.0.C.Y x.N i i p E o.' ~ ` { c ^ %.~.C ,.!.< :.9.= F.3.= Q.,.0 w ` ] ' '  .~ Z p.A r.A d v.O.k <     ",
"    f s.V.T.c.` p i p 6 E ] ' ' ` [ r / y 3.e y 1.< %.U = &.P - -.y 0 w ' ] ] ] @.[ B q.k k d K I.8.O.8     ",
"    d j.U.^.K.h d , < z ~ ` ~ ~ ` ` r E 8 8 2 4 ; e 8 8 r 0 r r r r R r _ ` ] ] { { x f < , d N.E.Z.z.0     ",
"    5 V.E./.P.X.= < 6 E ] _ ' ~ ] ` r ( E R r r r v z y _ E E _ [ ( E r ` _ ( ` { 7.E > < = K P./.E.B.3     ",
"    - c.R.n.Y.J : i p E [ E ^ ` ` / r { ] _ / v R [ v v  .[ ]  .7.{ ^ r ( ^ R / { { J ; i f E Y.n.R.c.&     ",
"    = & q 1 q , p i p W  .W R r R ^ r <.o.` { _ /  ./ v ] ] { o.7.` ~ r ( v 7 8 ( / - o * A f q 1 G & =     ",
"    = * . O + h f i p Q ^ a ; - c ^ r 7.{ ' ] ] ^ @./ x { ] { o.] ' ( w c 4 o # & 4 % . + V V + + . + :     ",
"    , = O + + < , < p ^ z < , , 4 x w { ] Q ' ' ^  .R c ` ' ( ] _ ( E 8 ; # , : = - d = d < f + + O = :     ",
"    f V + O , m f : > Q w < : * o % = - ; ; ; ; 6 < - - ; - ; ; ; ; , : * d k , = @ % = < k #.< O O f <     ",
"    f D * . d C f < p Q w < < * X + = = = = : : : = , , : : = : = = : = = d V k = @ @ < d V p.f . * j <     ",
"    f w.= O < C p < p E w + + + @ = = ; ; 6 6 7 < 7 e d a 7 6 7 < < ; = = : : : # - 7 , d A p.f . * j d     ",
"    f D + . < k i i p E / & o o 2 x r ' ` Q E ~ ] ] v t ` ` ~ ` ' E ( w 2 o o @ # - = . O m t.f . + j <     ",
"    d V = O : f : i p E ] w - - x Q r ( ] _ ~ ~ ` o.R t ] ] ` ] ` ` ] r [ 7 # # 0 E $ X = , j d O * m d     ",
"    < f : = = : : < 7 R W n n w c [ r ! ] _ ` ~ _ o.R x ] ] ` ] ] ` ` t [ R 4 5 Q o.0 > d , < = < = d <     ",
"    < f : = : < : , > z - f v e $ Z w ~ ] ~ ~ ~ ` o.J c ] ` ` ` ' ' ] r { _ / ( ` o.0 > < = < , = * < <     ",
"    f e.f i h N < < p a & & - 2 # 5 5 Q o.~ ~ ` _ ] R x o.` ~ ` ' ] ] r { ( ^ _ ] ] T z l e A j < d V <     ",
"    f r.N i f N p i p - - 0 T T 5 = 4 Q o.] ~ ' ~ ` R t ] ] ' ` ` ` ] r { ] ] ~ ] { T g l V i.V d d m <     ",
"    l p.A i f h i i a $ 4 t R R 0 & - ~ o.o.~ ~ ' ` x c ] ` ' ` ` ` ] r { { ] ` ~  .Q l l l e.e.j d m <     ",
"    d #.C d f < : i p 0 6 8 8 8 2 2 4 _ { o.! ~ ` ] x T ] ] ' ` ` ` ] t ] ] ] ` ! o.E a l , l D j l V d     ",
"    , f < , < , : , > R T > % # 5 0 w _ ] ` ~ ~ ] ] x t ` ' ' ` ` ` ] r ` ` o.! ` ] E p < , , d < d f ,     ",
"    , , = < k j i i p T ] R r t E E 8 _ o.` ] ~ ` ] x x ' ` ] o.` ` ] r ` ] ] ` ~ { Q a d l S m , = , ,     ",
"    d S V j C C a i p T { ] ~ ' ] E r ` o.` o.~ ` ` x x ~ ~ ] o.` ] _ r ` ` ` ] ~ { Q g l A p.D f l j <     ",
"    f p.C j A C f i p T @.[ _ _ ] Q r { o.` { ~ ` ] x x ` ! ` o.` ] ! r ` ` ] { ` ] E a h N #.A l V V ,     ",
"    f i.D C C C d i p T @.] W Q ' / r { { ' ] ~ ` ] x T ! ] ` { ] ` ` 0 _ ' / E ~ ] E g f V D A V A V <     ",
"    d D D C C k p i p x  .' W R _ _ r  .@.~ ~ ` o.] x T ` ] ` ] o.` ` r E W v v Q ] t 6 f N D A A A k ,     ",
"    - f C k k k i > p T { E 4 z ^ ^ z  .{ ~ ~ { @.] c t ` ] ] ] o.` ` r R z - 2 v s # . * j A V V k e ,     ",
"    , d e < < < , , 6 T T 4 - > c [ r { { ] _ { 7.{ t v _ ] o.] { ` ` r r - + @ % - , X * < f f < < < ,     ",
"    f t.u.S C C h < p x 8 , < , - R w ^ E E E _ [ E r r T E ~ E E E E 7 % % < : = - < < f V p.r.A V V <     ",
"    f t.D A C C h < 7 T 6 d : + + + * = % , = = : - = = = = - : % = = = = f V < % @ @ 4 l V t.S C C C <     ",
"    d D A C C k d < 7 T 4 , < * X O * = * = , , : , < , : = = : , = = = = < m h % % % < l l C A A C k <     ",
"    d S C C C f , i 7 x 4 O + + # 4 , 5 7 8 a 8 8 g w 7 g w g g w w 4 - = = + = % - d % < , j S C V k <     ",
"    < l k l f d = < 6 T r # # + = [ r ] ' ] _ ] { ] R x _ _ ] ] { ] E w 4 + o o & 2 % . + , d j h f f ,     ",
"    , < j l h < = > 6 E ^ r f 8 r <.r _ ` ] ' ] { ] v x _ ' ~  .@.` ( w x 8 4 4 J R & + , = d l e f , =     ",
"    : l p.#.A V i i p R ] _ ^ Q _ { r ~ ' ] [ ] @.` x x ~ ~ ' @.{ ' E w W W [ [ ] ' t 4 l f D S A C d ,     ",
"    < S u.D C A h i p R ] @.@.{ ` { r _ ] _ _ { 7.] x x ' ' ' o.{ _ ~ 0 E { 7.{ ] ' J a h V i.S C A k ,     ",
"    f i.D S C C f < < s 0 0 9 9 9 9 - 5 9 5 5 9 t 9 2 2 9 5 5 9 9 5 5 - 5 9 r 0 9 0 8 f f A r.A C A k <     ",
"    f i.#.A A k d , ,                                                                 d < k S A C C k <     ",
"    f D S C k V f =                                                                     = f A A C j k <     ",
"      f 7 d < < <                                                                         < d 7 < < <       ",
"                                                                                                            ",
"                                                                                                            ",
"                                                                                                            "
};
