/* XPM */
static char *_668626de412450ecad280f6f051f305RDg4by2n2V3QIwDI[] = {
/* columns rows colors chars-per-pixel */
"64 64 191 2 ",
"   c #3B240F",
".  c #3C2612",
"X  c #3D2915",
"o  c #40260F",
"O  c #402711",
"+  c #412A15",
"@  c #412D18",
"#  c #4C3017",
"$  c #4D331B",
"%  c #52361D",
"&  c #58371E",
"*  c #56381E",
"=  c #59391E",
"-  c #4E3720",
";  c #523720",
":  c #553B22",
">  c #5A3D23",
",  c #5D4126",
"<  c #5E4328",
"1  c #634325",
"2  c #6A4526",
"3  c #6D4827",
"4  c #674628",
"5  c #684729",
"6  c #66482B",
"7  c #6D4B2C",
"8  c #734C2D",
"9  c #7A4F2B",
"0  c #77502E",
"q  c #7B512E",
"w  c #734E32",
"e  c #755134",
"r  c #7B5433",
"t  c #7E5936",
"y  c #7B5638",
"u  c #7E5938",
"i  c #84552E",
"p  c #835633",
"a  c #885731",
"s  c #855936",
"d  c #8B5C35",
"f  c #855D3A",
"g  c #895E38",
"h  c #885E39",
"j  c #895E39",
"k  c #885F39",
"l  c #895F39",
"z  c #8A5E38",
"x  c #8B5E38",
"c  c #8A5F38",
"v  c #8B5F38",
"b  c #8A5F39",
"n  c #8B5F39",
"m  c #885E3A",
"M  c #895E3A",
"N  c #885F3A",
"B  c #895F3A",
"V  c #885F3B",
"C  c #895F3B",
"Z  c #8A5F3A",
"A  c #895D38",
"S  c #8C5E38",
"D  c #8C5F38",
"F  c #8D5F38",
"G  c #8C5F39",
"H  c #8A5E39",
"J  c #905E35",
"K  c #8E6037",
"L  c #8F6037",
"P  c #8F6037",
"I  c #86603C",
"U  c #87603C",
"Y  c #86603D",
"T  c #87603D",
"R  c #87613E",
"E  c #87613F",
"W  c #86603C",
"Q  c #8A6039",
"!  c #89603B",
"~  c #8A603A",
"^  c #8B603A",
"/  c #8A613A",
"(  c #8B613A",
")  c #8A603B",
"_  c #8B603B",
"`  c #8A613B",
"'  c #8B613B",
"]  c #8C6039",
"[  c #8D6039",
"{  c #8E6038",
"}  c #8F6038",
"|  c #8E6138",
" . c #8F6138",
".. c #8E6039",
"X. c #8F6139",
"o. c #8C603A",
"O. c #8D603A",
"+. c #8D613A",
"@. c #8C613B",
"#. c #8D623B",
"$. c #8F623A",
"%. c #8E623B",
"&. c #8F623B",
"*. c #88603C",
"=. c #89603C",
"-. c #88613C",
";. c #89613C",
":. c #88603D",
">. c #88613D",
",. c #89613D",
"<. c #8A613C",
"1. c #8B613C",
"2. c #89623D",
"3. c #8B623C",
"4. c #8A623D",
"5. c #8A633D",
"6. c #88613E",
"7. c #89623E",
"8. c #89623F",
"9. c #89633E",
"0. c #8A623E",
"q. c #8A633E",
"w. c #8B633F",
"e. c #8C613C",
"r. c #8C623C",
"t. c #8D623C",
"y. c #8D633C",
"u. c #8C633D",
"i. c #8D633D",
"p. c #8E633D",
"a. c #8B643F",
"s. c #8B653F",
"d. c #8F643C",
"f. c #8F643D",
"g. c #8D643F",
"h. c #8F663E",
"j. c #8D623C",
"k. c #936137",
"l. c #926136",
"z. c #986236",
"x. c #906138",
"c. c #906139",
"v. c #906239",
"b. c #916239",
"n. c #916339",
"m. c #90623A",
"M. c #91623A",
"N. c #90633A",
"B. c #91633A",
"V. c #90633B",
"C. c #92633A",
"Z. c #90643B",
"A. c #91643B",
"S. c #90643C",
"D. c #91643C",
"F. c #90653C",
"G. c #91653C",
"H. c #90643D",
"J. c #90653D",
"K. c #91653D",
"L. c #92643C",
"P. c #92653C",
"I. c #90653E",
"U. c #91673F",
"Y. c #91663E",
"T. c #92663E",
"R. c #92673E",
"E. c #92673F",
"W. c #94673E",
"Q. c #92653C",
"!. c #99663A",
"~. c #93683F",
"^. c #96683E",
"/. c #9A6A3E",
"(. c #A06D3D",
"). c #8D6640",
"_. c #8F6741",
"`. c #8E6640",
"'. c #8F6841",
"]. c #916740",
"[. c #906740",
"{. c #916840",
"}. c #916941",
"|. c #926840",
" X c #926941",
".X c #906942",
"XX c #926A42",
"oX c #936B43",
"OX c #936941",
"+X c #986E44",
"@X c #A06F40",
/* pixels */
"@ $ $ $ $ $ $ $ $ $ $ $ $ $ $ $ $ $ $ $ $ # $ $ $ $ $ $ - - - $ $ $ $ $ # $ $ # # # # # # # $ $ $ $ $ $ $ $ $ $ $ $ $ $ ; $ $ X ",
"@ r u.2.' ' 2.' ' d F k A d d A d K d d d s k d s d k ).).).2.V 2.m k F F k d A A M A d d a d F k k k k k ] 2.p.k V ] k 2.m r @ ",
"+ p W.J.J.Z.d.l.n.n.V.V.J.] ] ] n.K F n.] n.] n.] n.J.].oX'.}.`.J.p.n.V.J.V.V.V.n.F F F J J n.F n.n.F V.J.J.p.p.J.p.u.J.J.J.r + ",
"+ r Z.] ] ] F d k F F p.] ] ] d a A F k k ] F ] p.p.p.`.`._.`.).p.p.2.G p.2.p.p.p.p.G F F k F F F F F p.2.p.p.`.p.p.p.p.u.W.r + ",
"+ q n.F K F F F n.] p.p.J.J.n.F F d J ] V.] V.p.J.J.'.oXoXoX'.'.}.].}.`.].}.].J.`.u.J.V.Z.] Z.] n.n.V.J.].|.].].}.].}.}.J.J.p + ",
"+ q l.F F F F F d F k V p.' d A A A d d k A m m m m u ).).).E ).m f V V V V V m f s k A m m A A s s f f V 2.Y ).2.2.2.2.2.J.r + ",
"o 9 p p p r p t p s A s A s s s s s s s s M A m m V V f Y Y Y u V V V V E E f s A s m m s f f s s s f f V f f u f f s u f m w @ ",
"+ 9 a a a d d k k V k A m k s s s s s s s s A A m f f ).).Y Y E V E 2.2.2.2.E E ' 2.m 2.2.V m I k A V V V ).).).E ).2.I E ] q + ",
"+ 9 A s s A A M k V V V m m s s a s a s A A k k ' E E 2.).).E ).E E 9.9.).E ).E ).).Y f Y f f E A m m f f E I E V V f f f 2.r + ",
"+ 9 s t p s s f V s s p p s p p p p s p p p p p p p m f u Y f u f Y m E E u u E u u Y f Y u u f u s y s s f f f f s f f f E r @ ",
"+ r V A A A V V V 2.V m s A A p p a A s s s s s s k I I E E E E E R E E ).).E E I I Y Y ).).).E ' k ' ' E m m f f s f s p m r + ",
"+ 8 s p p y p s u p p t p p 9 i i r i p p p p p s p s f f f ).).I I I I u E E E f Y Y Y E y y e r r r t t s m m m m f m f m q @ ",
". + + + + + + + + X + + . o O O O O O O O + + + X + @ X + X @ X X @ X X @ X @ X X X X X X @ @ @ X @ X X X X X X X . X X X X X   ",
"1 > 1 > > 1 > > > > > > = = % O O % = % % % % : : % % : : : > > , , , < < < < < < < < < < < : < : : : : > , 1 , 1 , 1 1 1 , , 1 ",
"L.!.W.W.OX/.+XOX/./.z.!.z.z.i O O p z.k.n.F n.] ] ] m s s y y y y y y y y y u u Y f ).Y y y y y y y y y s 2.J.~.W.W.W.W.!.W.k.!.",
"r r r r r t t s p s p A A J 9 o O i k.n.!.!./.(./.(.+X@X/.+X`.s e w e e e e e e e e e e e e e e e e w e e t m ' ' ' I d d s d s ",
"w w w w e r r y s u s s A d 9 o o i J z.!.!.!.+XL.V.G M A r y w e r y r u f f I 9.9.'.'.}.~.'.9.).V V p.[.L.|.OX+X!.!.!.L.k.!.k.",
"s a A A F V.V.].].}.].J.k.J q O o i d d d a s p r t s y y s f V E ' 2.E 2.] 2.2.9.E 9.E E E I m f f s s s p p p p p s s a M A F ",
"a a A s f f f f u u t u M A 9 O o 8 p q p r s s A A m k V A V V 2.2.m m ' m m E ' m Y f I m I m A s s A s s s s s p y r w 8 8 8 ",
"p p p A V u w e e w s p.F A 9 O O 9 p p p A A m k k m V V V V V m m f f m f f m f f f m m m m m s s t t s s s p s s p d J s 8 p ",
"a p s p G V Y oXOXu u.m s A q . + 9 a p s A s f s f f f f f f f f f f f m m s m f m f m f m s s p s a e w d S 0 w p a p p a p i ",
"i p s s f V ].).oXV V m m A r + O 9 M s s s f f s A f f m m E f f f f V m m m I I ' m f s m p s s s p A p J (.p r d p p p i p a ",
"p q p s f f ].`.u.V m m s m r X + 9 s s M m V V ' ' I ' I ' I ' 2.E m m m m m I m m f p p s s p p A a p s r p p a p a a p p i p ",
"S p M M V f [.[.2.E 2.V m V p + + r G G G `.V E 2.k m f f s f f s f f s A s s p f f m m m m s s s s M S a S a S p d S s p a a p ",
"8 8 w 8 y r w e e e e e e e 7 + + 5 w 8 w w w w e w e 0 r r r r r r r q q q q q r r r r q q q q q 8 8 8 8 8 8 8 w w w 8 8 8 8 8 ",
"  . . . . . . X . . . X . . . . . . . . . . X . X X . . . . . X X X . . . . . X . . X . . X .                   . . . O . .     ",
"5 1 1 5 5 5 4 7 7 7 7 6 7 5 5 7 7 5 5 7 7 7 7 5 7 2 4 4 4 2 1 + + 1 2 2 1 2 4 4 5 7 5 7 7 2 4 2 2 2 2 2 2 2 5 7 7 7 7 5 5 2 2 2 ",
"G M G G p.V F W.n.~.~.W.|.|.J.2.G p.G `.].].|.L.Z.Z.n.Z.n.!.p + + p Z.l.n.Z.!.Z.W.OXOXOXR.Z.Z.k.n.l.k.l.l.n.n.J.].].].OX|.W.W.k.",
"s A s s A M V.F k ] J.W.2.s f V A s p s s f M F d d K d K ] p + + q J d d d F F ] V.u.] p.] ] d F a d d A d F ] p.`.`.`.p.).p.2.",
"G M M A F ] ] n.J.u.2.}.u V E ).f s A s f s s s l.Q K K ] Z.r X + q J d F F J K ] p.J.J.u.Z.] l.F J d J F F F n.`.`.'.`.].].].u.",
"G G F n.p.F p.] J.p.u.}.u ).f f Y f V S s p A p d F d d.n.V.t + O q J d F F ] n.Z.n.] p.n.] F F J d d J F F p.J.p.`.}._.`.].].`.",
"p.G V.n.] V.p.p.J.J.}.+Xu ).).f f s k M A t s p a l.K ] ] J.p + + i J d d n.] ] ] Z.p.n.] ] F J F F d F n.] p.u.p.`.}.`.`.].`.`.",
"J.p.] ] p.J.J.u.h.u.oX+X~.I I I m s s p s i s s p A F ] ] Z.t @ O q F d F ] ] Z.h.h.d.d.K K K d ] d ] ] Z.d.d.J.u.~.}.].'.}.`.`.",
"u.J.J.u.p.u.].J.`.}.u.'.~.u.] ' m I s p s s i q J J n.Z.d.d.p @ + p K F F F ] p.h.h.9.h.] ' K K K K K ] ] ] ] u.u.u.u.`.`.`.'.`.",
"`.u.u.J.u.`.}.}.}.].u.h.u.' | K ' ' Q s Q s s K d F ] ] u.J.u @ + i ] K ] ] ] J.h.'.s.s.d.d.] ] ] n.n.] ' ] d.d.J.~.'.}.`.'.}.'.",
"u.u.2.p.p.p.u.].}.u.u.u.Z.] Q K K ' d.d.K n.K K d F ] ] p.}.u @ + r n.k ] ] p.u.s.h.'.'.u.d.Z.d.n.] ] ] K K | d.u.u.`.`.`.`.'.`.",
"oXOXW.J.J.}.|.OX}.OXW.W.J z.l.l.Z.W.J.W.h.h.R.n.n.k.W.}.oX+Xf X @ p W.] Z.!.J.}.oXoXoXoXoXoX}.oX].W.h.Z.Z.Z.R.R.oXoXoXoXoXoXoXoX",
"8 7 7 7 7 7 7 7 7 7 7 7 2 2 3 3 7 7 7 7 7 7 7 7 7 7 7 8 7 w 6 X X 4 8 7 7 3 7 7 7 7 7 e 7 w 7 7 7 7 7 7 3 7 7 7 7 7 7 7 w w 7 w ",
". . X . . . . . .                 . . . . . . . . X . X . X X @ X X . . . . . . . . X . X . . X X . . . X . . . X X X X X . X X ",
"r 0 r q 0 q 8 q 0 9 9 8 9 9 9 9 8 0 q r r e e e y y u y y y y e e q q r 0 0 9 r r r e y y y 8 @ @ e y r q r e r e y y y e y y y ",
"}.~.Z.l.l.l.l.J z.J J z.J J J J F J J l.Z.W.W.}.OXOXoXoXoXoXOXOX~.R.Z.Z.Z.n.k.V.J.J.|.W.|.+Xs @ X f +XJ.J.J.~.OX~.oXoXoXoXoXoXoX",
"d.' F F d d d A a J d a a a J a d a J a K ] J.u.`.`.].`..X].`.`.h.h.Z.d.Z.] n.] n.p.V.V.] J.t @ @ s ].p.] p.] u.h.~.s.'.'.~.h.s.",
"' F d d J J d a J a a J J a J a a a J J F V.J.].].].].OX].`.`.`.`.J.J.u.J.] ] ] F ] p.p.p.p.t X @ u ].u.p.] p.p..X'.'.s.'.h.h.h.",
"] F F d a a a J a J a d d J a J J a a J F n.u.J.].[.[.OX].].`.`.u.u.J.J.u.p.p.] n.n.] ] p.J.p + @ u J.J.] J.p.p.s.~.oXs.'.h.h.h.",
"J J J z.J a J J J a J J J d a d J a d d F F ] J.p.p.[.G p.p.p.g.u.u.u.u.] u.p.' F F F F G p.t + @ t h.y.G p.] p.u.`.'.'.'.h.u.u.",
"J J a a a a a a a J J a d d J d J a J J J l.Z.J.].p.J ].J L.L.L.W.W.~.J.J.W.u.p.V.] F V.n.V.p + @ s J.d.] k ] p.2.2.`.).`.9.u.] ",
"l.d J a J a J J d a d a a d s d a a s s s d d s A s A p s s s p s s m p p A p p s p s s s s r X + e f p t s s u V f f Y E f m f ",
"d a a i i i i i p p i p p p p p a a p p A s s s s s p s s s s a s d s m k k m A A s A p A M r + @ r ' I 2.m V V V ).2.2.E E m m ",
"p p p i a p p a a A p p a p p s p s s s M s s s a a p a a p s s a p p p s s s s s s p p p A r + + r A t f V V f f ).).Y u V V f ",
"d d a d a a d a a a s a A d M a A d M A s s s a s s s s s p s a s A s s s s s a p a A d A F r + + t p.V V ).V ).E ).).).Y V V f ",
"= = = = = = = = = = = = = > : = : > : > > : : ; & ; > & & & & & & ; & & & & & & % & = > % > : + + > > > , > , < > < < < > > > > ",
". . o X O O   o . O .   O . . O O . + . O O O O O O   o O O O O O O O O O O     o o   . o o X @ @ X X X X X X X X X X X + + . . ",
"+ 8 w 8 8 8 8 8 8 8 8 8 7 8 8 8 w w 7 w w w 8 8 8 8 8 w 8 8 w w 8 8 8 8 8 8 8 8 3 8 8 i J d d p m 2.W.m e e y y y y y y e r 8 + ",
"+ 8 r e e t e e e r e w e r w e e y e r w w w w w 8 w w w w w w w w w 8 8 8 8 w 8 0 8 i J n.!.J.J.W.u.m e e e e e w w w w w 7 + ",
"+ q K ' A A a A d d s M S s S M V V m m M M m s a a p s s s s s p s a p p p p i i i i p r p s p s s u y u u u u y s s s p s 9 + ",
"+ q s p A s s s s p s s p p A s s V s m A s s s s s s s s s M s s s s a p a a p a a a p s s A m 2.k 2.2.m V 2.' V 2.M a M d e + ",
"+ r k s s A s A s s s s s s s A m A f V s f s p a s p p s s s s p s p p p p p p r i a p s s p p s f m m f m f f A u s s p s 9 + ",
"+ r F M A A s A s s s s M J A A V V V 2.V V m s A a s p s A s M s s s s a s p p a p p p a a A s m m m 2.I I I ' A m M k M k r + ",
"+ r V k s k F ] O.J d s s A f A k V m ' V s f A s p s s s A s M s s A s p p p a a a p i p p s s s m V V I I m m A A s A s M e + ",
"@ r V m A r t A M s p y s s A m k k I 2.V V V s A p s s s s a M s s s a a s a a s a d a s d A A k ' ] 2.2.p.p.' V V k k A F r + ",
"+ u oX}.].u.A r r r a F J ].J ].J.Z.J.J.J.W.J.n.J J l.n.J L.L.J J J J J J J J J J J J J d F F K ] ] J.J.u.h.~.~.J.Z.Z.u.F W.p + ",
"@ s }.`.p.].W.W.L.z.W.F G G G G ] ] ] J.J.J.] ] F F F F G G G F J J J S S S J J d J d d d d F K F ] J.u.y.y.u.] p.u.p.] ] |.t @ ",
"@ y J.u.p.V V V F A s s S d F S d ' ' p.2.] k d d A F k M M M J s s J a a J a s a d d J a d d d d ' ] ] ' ' ' 9.] p.2.' 2.u.t @ ",
"@ - ; ; - ; - - $ # $ # $ $ $ % % $ $ $ $ % % $ $ % $ % ; ; ; $ $ # # # $ $ $ $ % # # # $ $ $ % $ % $ % % $ % % % % % % % ; $ @ "
};
