/* XPM */
static char *c9156fc42ff749a9aa7e9b28a568572bmQsxHSxahK1AN6i0[] = {
/* columns rows colors chars-per-pixel */
"64 64 140 2 ",
"   c #020202",
".  c #0F0702",
"X  c #0F0803",
"o  c #110A04",
"O  c #180F07",
"+  c #100F0F",
"@  c #1F1106",
"#  c #1C1108",
"$  c #141212",
"%  c #1D1D1D",
"&  c #201207",
"*  c #221409",
"=  c #2A1B0D",
"-  c #231B14",
";  c #221F1D",
":  c #27201B",
">  c #2A221D",
",  c #1F1F20",
"<  c #201F20",
"1  c #232221",
"2  c #2E2621",
"3  c #2E2821",
"4  c #322A22",
"5  c #363536",
"6  c #383736",
"7  c #393939",
"8  c #6E421C",
"9  c #71441D",
"0  c #7E4A1F",
"q  c #724520",
"w  c #7E4B20",
"e  c #7E522D",
"r  c #7E7E7F",
"t  c #804C21",
"y  c #855124",
"u  c #8D5424",
"i  c #81532D",
"p  c #8F5B2F",
"a  c #935927",
"s  c #955B28",
"d  c #995F2A",
"f  c #8F5C30",
"g  c #905D32",
"h  c #9B602A",
"j  c #8F633E",
"k  c #9D6C36",
"l  c #90633E",
"z  c #A16D36",
"x  c #AB7236",
"c  c #AF7639",
"v  c #B07739",
"b  c #B2793B",
"n  c #BA7C3B",
"m  c #807F7F",
"M  c #BF803D",
"N  c #C2823E",
"B  c #B5834E",
"V  c #B78650",
"C  c #80807F",
"Z  c #C78741",
"A  c #C88741",
"S  c #C88943",
"D  c #C58C50",
"F  c #CB9355",
"G  c #CC9558",
"H  c #CF9E69",
"J  c #D19F69",
"K  c #7F7F80",
"L  c #808181",
"P  c #8D8781",
"I  c #8E8883",
"U  c #9B8F85",
"Y  c #9D9085",
"T  c #B7B6B5",
"R  c #B9B7B7",
"E  c #B9B8B7",
"W  c #BDBCBB",
"Q  c #C0BFBE",
"!  c #C0C0BF",
"~  c #C3C2C2",
"^  c #C8C7C6",
"/  c #C9C8C9",
"(  c #DCD5CE",
")  c gray84",
"_  c #D7D6D6",
"`  c #D7D7D7",
"'  c #D5D5D5",
"]  c #D5D5D5",
"[  c #DDD7D1",
"{  c #DED7D0",
"}  c #DFD9D1",
"|  c #DFD9D2",
" . c #D8D8D7",
".. c #D8D8D8",
"X. c #D9D8D8",
"o. c gray85",
"O. c #D9D9D8",
"+. c #DADADA",
"@. c gray86",
"#. c #DCDCDB",
"$. c #DDDCDC",
"%. c #DBDADA",
"&. c #E0D8D0",
"*. c #E0DFDF",
"=. c #F0E3D6",
"-. c #F2E4D6",
";. c #F2E5D6",
":. c #DFE0E1",
">. c #E0E1E1",
",. c #E1E1E2",
"<. c #E2E2E2",
"1. c gray89",
"2. c #E2E3E3",
"3. c #E5E4E3",
"4. c #E4E4E4",
"5. c #E1E1E1",
"6. c gray93",
"7. c #EEEEEE",
"8. c #EFEFEF",
"9. c #EEEEEE",
"0. c #F0EFEF",
"q. c #F7F0E9",
"w. c #F0F0EF",
"e. c #F9F2EA",
"r. c #F9F2EC",
"t. c gray94",
"y. c #F1F1F1",
"u. c #F1F2F2",
"i. c gray95",
"p. c #F3F3F3",
"a. c #F4F4F4",
"s. c gray96",
"d. c #F5F5F6",
"f. c #F6F6F6",
"g. c gray97",
"h. c #F3F3F3",
"j. c #F8F8F8",
"k. c #F9F9F9",
"l. c gray98",
"z. c #F8F8F8",
/* pixels */
"l.6.f.6.f.t.f.6.f.t.f.t.t.f.t.f.t.f.6.g.6.j.6.l.6.l.6.f.6.f.8.f.8.p.t.p.p.t.f.t.f.6.f.6.j.6.l.6.g.6.g.6.g.8.f.t.f.t.f.t.p.f.t.j.",
"6.f.t.f.t.f.t.f.t.f.t.f.f.t.f.t.f.t.f.8.f.8.f.8.f.6.f.8.f.8.f.t.f.t.f.t.t.f.t.p.8.f.t.f.8.g.8.f.8.f.8.f.6.f.t.f.t.a.t.a.a.t.f.8.",
"f.t.f.t.f.6.f.t.f.t.t.t.f.t.t.f.t.f.8.f.8.f.t.f.8.f.8.f.8.f.t.f.t.p.t.p.p.p.f.t.a.t.f.8.f.8.f.8.f.8.f.8.f.8.f.t.f.t.p.t.t.a.t.f.",
"6.f.6.f.t.f.t.f.t.f.t.f.t.t.f.t.p.8.f.8.f.6.f.8.f.8.f.t.f.8.f.t.f.t.f.t.t.t.t.f.t.f.8.f.t.f.8.f.8.f.8.f.8.f.t.a.t.a.t.f.f.t.a.8.",
"l.6.f.t.f.6.f.t.f.t.f.t.t.f.t.f.t.f.t.f.8.f.t.f.8.f.t.f.8.f.t.p.t.p.t.f.f.t.p.t.a.t.f.8.f.8.f.6.f.t.f.8.f.8.f.t.f.t.f.t.t.f.t.f.",
"6.f.t.f.t.f.t.f.t.f.t.t.f.t.f.t.f.t.f.8.f.8.f.8.f.t.f.t.f.8.f.t.f.t.f.t.t.f.t.f.t.f.8.f.8.f.t.f.8.f.8.f.8.f.t.f.t.a.t.a.a.t.p.t.",
"f.t.f.6.f.t.f.t.f.t.t.f.t.t.t.f.t.p.t.f.8.f.8.f.8.f.8.f.8.f.t.p.t.p.t.p.p.t.f.t.a.t.a.8.f.8.f.8.f.8.f.t.f.t.f.t.f.t.f.t.t.f.t.f.",
"t.f.t.f.t.f.t.t.t.f.t.f.f.f.t.t.f.t.f.t.p.t.f.t.f.8.p.t.p.t.f.t.f.t.f.p.t.f.t.p.t.f.t.f.t.a.t.f.8.f.t.a.t.a.t.a.t.a.t.p.a.t.a.t.",
"f.t.t.t.f.t.f.t.t.f.t.t.f.t.t.f.t.f.t.f.t.f.t.f.t.f.p.f.p.f.t.f.f.f.p.a.a.a.p.t.a.t.a.t.f.t.f.t.f.t.f.t.f.t.f.t.f.t.a.t.p.f.t.f.",
"t.f.t.f.t.t.t.f.t.t.f.t.t.f.f.t.f.t.p.t.f.t.f.t.f.8..._ ` ` ..` _ _ ` ` _ @.8.p.p.p.p.a.t.f.t.a.t.a.t.f.t.f.t.a.t.a.t.f.a.t.a.t.",
"f.t.f.t.f.t.f.t.f.t.f.t.f.t.t.f.t.p.t.p.t.f.t.p.f.@.7 % < ; , % < % , % % 7 @.g.a.t.p.t.a.t.a.t.p.t.f.t.p.t.f.t.f.t.f.t.t.f.t.f.",
"t.f.t.f.t.f.t.f.t.f.t.f.t.t.f.t.f.t.f.p.p.t.f.6...W > . o o X X o o o o . 2 W ..t.p.p.a.t.f.t.p.t.a.t.a.t.f.t.p.t.a.t.a.a.t.a.t.",
"t.f.t.f.t.f.t.t.t.f.f.t.f.t.t.f.f.t.p.t.p.p.f.@.7 : q w w w w w 0 w w w w 8 > 7 @.f.p.p.t.a.t.f.p.f.t.a.t.a.t.a.t.a.t.a.p.t.a.t.",
"f.t.f.t.f.t.f.t.f.t.t.t.t.f.t.t.t.f.t.f.t.0.` W > & w u u u u u u u u u u w & > W ` t.p.f.t.a.t.a.t.f.t.f.t.f.t.f.t.f.t.t.f.t.f.",
"t.f.t.f.t.f.f.t.t.f.t.f.f.t.f.t.p.t.p.t.f._ 5 ; q t u u u u u u u u u u u u t q : 5 ` g.t.f.t.f.t.f.t.f.t.a.t.a.t.a.t.f.a.t.a.t.",
"f.t.t.t.f.t.t.t.f.t.f.t.t.f.t.f.t.f.t.f.p._ % o w u u u u u a a u u a a u u u w @ : W ..t.t.f.t.a.t.a.t.f.t.f.t.f.t.a.p.t.f.t.f.",
"t.f.t.f.t.t.t.f.t.f.t.f.a.t.a.t.f.t.f.t.l.] % . 0 u u u u a n n a a n n a u u u w 9 > 7 ..f.8.f.t.f.t.a.t.a.t.a.t.a.t.a.p.t.a.t.",
"f.t.f.t.f.t.f.t.f.t.a.t.t.a.t.f.t.f.t.t...~ : @ 0 u u u u a N N d d N N d a a a d y o % ..t.f.8.f.8.f.t.f.t.f.t.f.t.f.t.t.f.t.f.",
"t.f.6.f.6.f.t.f.t.a.t.f.a.t.a.t.f.t.f.` 7 > 9 w u u u u u a n Z M M N Z M M N M N x o , ] f.8.f.8.f.8.f.8.f.t.f.t.a.t.a.a.t.f.t.",
"f.t.f.t.f.t.f.t.f.t.a.t.t.f.t.f.t.f.t...% o w u u u u u a d N S F G G F S Z S S F B # , ..t.f.w.f.8.f.8.f.8.f.t.f.t.f.t.t.p.t.f.",
"6.f.6.f.t.f.6.f.t.f.t.a.a.t.a.t.p.w.p.] : o w u u u u a n N N F ;.q.r.=.G Z Z F ;.( % % ] f.6.f.8.f.8.f.8.f.8.a.t.f.t.a.f.t.f.t.",
"l.t.f.t.f.t.f.t.a.t.a.t.t.a.t.f.t.f.t.` % o w u u u a d N S F H ( :.:.( D Z c B 0.5.; % _ t.f.t.f.8.f.8.f.8.f.t.a.t.f.t.t.a.t.f.",
"6.f.t.f.t.f.t.f.t.f.t.a.f.t.a.t.g.w.g.] , o w u u a n N N F ;.[ 5 % % 4 n b = 4 3.2.% % _ l.t.f.8.f.8.f.8.f.8.f.t.f.t.f.f.t.f.8.",
"l.6.f.6.f.t.f.6.f.t.a.a.t.a.t.f.w.f.a.@., o w u u a N S S G e.2.%     # b b o % 5.2.; % ..t.f.6.f.8.f.8.f.t.f.8.a.t.p.p.t.p.t.f.",
"6.f.t.f.6.f.t.f.t.f.t.f.a.t.f.t.f.w.f.] % o w u u s M S S F e.2.%     # b v o , 2.2.% % ] g.0.f.8.f.8.f.6.f.8.f.t.f.t.f.p.t.f.8.",
"f.6.f.t.f.t.f.6.f.t.t.t.t.f.t.f.w.f.t...% o w u u s n N N F ;.&.5 % % 3 z k > 5 } [ % %  .w.f.t.f.8.f.8.f.8.f.t.a.t.a.t.t.a.t.f.",
"6.f.6.f.t.f.t.t.t.f.f.t.a.t.f.t.g.t.l.] % o w u u u a h N Z G H { 5.2.^ 3 4 / &.H B # % _ l.w.f.8.f.8.f.t.f.8.a.t.a.t.f.a.t.f.8.",
"l.t.f.t.f.t.f.t.f.t.f.t.t.f.t.t...` _ W % o 9 w u u u a N S N F { 2.1.^ % % / &.D x O % W ..t.t.f.8.f.8.f.8.f.t.f.t.a.t.t.p.t.f.",
"6.f.t.f.6.f.t.f.t.t.f.t.f.t.g...7 % : %     X * 0 u u a M Z Z b 4 : % %     % > y y o   % 7 ..l.t.f.t.f.8.f.8.f.t.a.t.a.f.t.f.t.",
"f.t.f.6.f.t.f.t.t.f.t.t.p.t...W > . o o o o   O w u w y M Z N x = o o o # # o * t w O   . 2 W ` t.t.f.t.f.t.a.t.f.t.f.t.t.a.t.f.",
"6.f.t.f.t.t.t.f.t.f.t.f.f._ 5 : q w w w w 8 X o w t * = b N h d c x y y x x y t u w o X 8 9 : 5 _ j.8.f.8.a.t.f.t.p.t.f.f.t.a.t.",
"f.t.f.t.f.t.f.t.f.t.f.t.t._ % . w u u u u t * # 8 8 X # x n y y n n y y n n y 0 t 9 # * t 0 X % ..t.a.t.f.t.a.t.f.t.p.p.t.p.t.f.",
"t.a.t.f.t.f.t.a.t.f.t.p.f._ % o w u u u u u w q # X   o y y & & y y * * y y * o o # q w u w o , ] j.t.p.t.p.t.p.h.h.h.h.h.h.h.t.",
"a.t.f.t.a.t.a.t.p.t.f.t.@.Q > * w u u u u u u w * o o # 9 9 # @ 9 9 o o q 9 # o o & w a u w * 2 W $.t.p.h.h.p.h.h.h.h.h.h.h.h.h.",
"t.a.t.a.t.f.t.f.t.f.f...7 4 k x a u u u u u u u w w w 8 & * 9 9 * X     X * q w w w u u u a x k 2 5 ` p.h.h.h.h.h.h.h.p.p.t.h.h.",
"a.t.f.t.a.t.f.t.f.t.t._ % O v N a u w w w w u u u u a w # * i e O   $ $ O * w u t w w t y s Z v O % ) p.h.h.h.h.h.h.h.t.h.h.h.h.",
"a.t.a.t.f.t.a.t.t.t.f._ , O v N a w * o o * w u u u u u w i U P $ + r P e w u w * o o * t s Z v O % ] p.p.h.h.t.p.t.h.h.h.h.h.h.",
"t.a.t.f.t.a.t.f.t.f.a._ % O v N a w * o   o w u u u u u f j I K 1 1 P U f u u w o   o * w s M v o % ] p.h.h.h.h.h.h.h.h.h.h.p.t.",
"f.t.f.t.a.t.a.t.f.t.f._ % O v N a u t 9 o o w u u u u f Y I 1 1 K I j f u u u w o X 8 t u a N b O % ] h.h.h.p.h.h.h.h.h.h.p.h.h.",
"w.a.t.f.t.f.t.f.t.t.a.] ; O x n a u u w o o w u u u f j P r < 1 I U f u u u u w o o w u u a n x O % ] p.t.p.h.h.h.h.h.h.h.h.p.t.",
"f.6.f.t.a.t.f.t.p.p.p.` % o y s u u u w X o w u u f Y I 1 1 m I j f u u u u u w o o w u u u s t . % ] p.p.t.p.p.h.h.h.h.t.h.h.p.",
"6.f.6.f.t.a.t.a.t.p.p...6 > 9 t w w w 8 X o w a s l I L 1 1 I U f u u u u u u w o X 9 w t w t q ; 5 ] g.t.p.p.p.t.h.h.h.p.h.p.t.",
"g.t.f.t.f.t.f.t.p.p.p.t...W ; X o o o o   o w f Y I 1 1 L I j f u u u u u u u w o   X o o o o > Q ` h.t.j.t.p.p.p.h.p.h.h.p.h.p.",
"6.g.t.f.6.f.t.a.p.p.t.p.f.` 6 ; , , , %   o i j I C 1 1 I Y f u u u u u u u u w o   % , , % ; 6 ` j.t.g.t.p.t.p.t.p.h.h.p.p.p.t.",
"f.t.f.t.f.t.f.t.p.p.p.p.p.t...` ] ` ` Q , $ P P 1 1 L I j f u u u u u u u u u w o % Q ` X.] ..` p.0.p.t.p.t.g.t.p.h.h.h.h.h.t.d.",
"6.g.6.f.t.f.t.a.p.p.t.p.p.t.j.p.f.0.*.R 2 - P P - - P Y f u w w u u u u u u u w * ; R *.6.g.t.j.0.g.0.g.t.g.t.p.t.p.t.h.p.h.p.t.",
"l.6.g.t.f.t.f.6.p.t.p.t.p.p.t.p.p.*.5 ; q t f f w t f f u t # & w u u u u u u y t 9 ; 6 @.p.g.0.f.6.g.0.p.t.d.t.p.h.h.h.h.p.h.p.",
"6.g.6.f.6.f.t.f.p.p.p.p.p.p.p.6.*.R % o w u u u u u u u w q : > q w u u u u u u u t o % R *.6.p.0.f.0.f.t.d.t.p.h.p.h.p.p.h.p.t.",
"l.6.f.t.f.t.f.t.a.t.a.t.f.f.f.$.7 %   o w u u u u u u 0 @ > W ~ > @ t u u u u u u w O   % 7 :.a.j.t.f.6.f.t.f.8.a.t.a.t.a.a.t.j.",
"6.f.6.f.t.f.6.f.t.f.t.w.......W > . X # y u u u u y t 9 : 5 2...5 : 9 0 y u u u u w * o . > E @.] $.6.f.t.f.8.f.t.a.t.f.a.t.a.t.",
"f.t.g.t.f.t.f.t.a.t.j.$.7 % 1 > q w w w u u u u u t * > T $.w.t.` Q 3 * w u u u u u w w w 8 > , % 7 $.f.f.6.f.t.f.t.a.t.t.a.t.f.",
"6.f.6.f.6.f.t.f.t.t.@.W > . o # w u u u u u u u u 0 o , #.p.f.t.g.` , o w u u u u u u u u w @ . . : E $.6.f.t.f.t.a.t.a.f.t.a.t.",
"j.t.f.6.f.t.f.t.g.@.5 : 9 w w t u u u u u u u u u t o % ] f.t.f.a.` , o 0 u u u u u u u u u w w w q > 7 $.t.f.t.f.t.f.t.t.f.t.f.",
"6.f.t.f.t.f.t.a.a.` , . 9 0 w w w 0 w w w w w w 0 8 o % ..t.p.t.g.` , . 8 0 w w w w w w w w w w w 9 . % ] l.t.a.t.a.t.a.a.t.a.t.",
"f.t.f.t.f.t.a.t.a.` %   . o . o . o o . X X X X o .   % ] p.t.p.a.` ,   . . . . X . X X o o X o o X   % _ t.f.t.f.t.a.t.t.a.t.f.",
"t.f.t.a.t.a.t.f.a.@.7 % , % , , , % , % , , % % , % % 7 #.a.p.a.p.O.7 % , , , , , , , , % , % % % % % 6 _ f.t.f.t.a.t.a.f.t.a.t.",
"f.t.a.t.a.t.a.a.a.6..._ ` _ _ ` ] ..] ` ] ..] ..] ..] @.w.a.t.a.a.w.` _ _ ] ` ] ..] .._ ..] ..] ..] ....t.t.f.t.f.t.a.t.a.a.t.f.",
"t.a.t.a.a.a.t.a.w.a.a.a.a.a.a.a.a.a.a.a.a.t.g.t.a.a.a.a.a.t.a.t.a.a.a.a.a.a.a.a.f.f.t.f.t.f.a.f.t.f.a.f.a.a.t.f.t.a.t.f.a.t.f.t.",
"a.a.a.a.a.t.a.t.a.t.a.w.t.a.t.a.a.a.t.a.a.a.t.a.u.a.t.a.t.a.t.a.w.a.t.a.a.t.a.a.a.t.a.t.p.t.a.t.f.t.a.t.a.t.a.t.f.t.f.t.t.a.t.a.",
"t.a.t.a.t.a.t.a.w.a.a.a.a.t.a.a.t.a.a.t.a.t.a.a.a.t.a.t.a.a.a.a.a.t.a.a.a.a.t.a.t.f.t.a.t.f.t.f.t.a.t.f.t.a.t.a.t.a.t.a.f.t.f.t.",
"a.a.t.a.a.a.t.a.t.a.t.a.a.t.a.a.a.t.a.a.a.t.t.a.a.a.t.a.a.a.a.t.a.a.a.t.t.a.a.a.t.a.t.a.t.a.t.a.a.a.t.f.t.a.t.a.t.a.t.a.a.t.a.t.",
"a.t.a.a.a.t.a.t.a.a.a.t.t.a.t.a.a.t.t.a.t.a.a.a.t.a.t.a.t.a.t.a.t.a.t.a.a.t.a.w.f.t.f.t.f.t.f.t.a.t.a.t.f.t.f.t.f.t.f.t.t.a.t.f.",
"t.a.w.a.t.a.a.a.t.a.t.a.a.t.a.t.a.a.a.t.a.t.a.t.a.t.a.t.a.t.a.a.a.t.a.t.a.a.t.a.t.a.t.f.t.f.t.f.t.a.t.f.t.a.t.a.t.a.t.a.f.t.a.t.",
"j.w.a.w.f.w.a.t.a.t.a.a.t.a.a.a.t.f.t.a.t.g.t.g.t.a.t.f.w.a.w.a.t.a.a.t.a.t.a.t.a.t.f.6.f.t.f.6.f.t.f.t.f.t.f.t.f.t.a.a.t.a.t.f."
};
