/* XPM */
static char *cefdec2bd1404608c8b40a8f8a5c4571D4A5gb2u4WCB7Law[] = {
/* columns rows colors chars-per-pixel */
"64 64 185 2 ",
"   c #7C372C",
".  c #73382F",
"X  c #7B392E",
"o  c #663E37",
"O  c #6D3B33",
"+  c #663F39",
"@  c #743C34",
"#  c #7E3D33",
"$  c #5E423D",
"%  c #62433D",
"&  c #6A423C",
"*  c #764037",
"=  c #7D4036",
"-  c #75433B",
";  c #7A453D",
":  c #77483F",
">  c #7B483F",
",  c #4B4F4D",
"<  c #574541",
"1  c #594642",
"2  c #534A46",
"3  c #5C4945",
"4  c #554C49",
"5  c #5A4E4A",
"6  c #4B514F",
"7  c #52514F",
"8  c #5B514D",
"9  c #4D5351",
"0  c #535553",
"q  c #5D5651",
"w  c #555856",
"e  c #5D5955",
"r  c #565B59",
"t  c #5C5D5B",
"y  c #644641",
"u  c #6E4740",
"i  c #654943",
"p  c #6B4B44",
"a  c #604F4A",
"s  c #6B4F48",
"d  c #744D45",
"f  c #7C4A42",
"g  c #64524D",
"h  c #6D524B",
"j  c #72534C",
"k  c #7A534B",
"l  c #635651",
"z  c #685752",
"x  c #635A55",
"c  c #6C5A54",
"v  c #635E5B",
"b  c #6B5E59",
"n  c #735750",
"m  c #745B54",
"M  c #795E56",
"N  c #725F58",
"B  c #5E615E",
"V  c #63625D",
"C  c #6C625C",
"Z  c #71635C",
"A  c #5F6160",
"S  c #646462",
"D  c #6A6761",
"F  c #666965",
"G  c #6B6A65",
"H  c #6C6D69",
"J  c #716760",
"K  c #736B64",
"L  c #796D66",
"P  c #716F6A",
"I  c #7B6F68",
"U  c #6E706C",
"Y  c #73736E",
"T  c #7C726B",
"R  c #757571",
"E  c #797773",
"W  c #777972",
"Q  c #7B7A75",
"!  c #7E7E79",
"~  c #843A2E",
"^  c #89392C",
"/  c #833E34",
"(  c #893E33",
")  c #844036",
"_  c #8D4237",
"`  c #8C4136",
"'  c #8B4136",
"]  c #854238",
"[  c #854339",
"{  c #8B4338",
"}  c #8C4338",
"|  c #8D4338",
" . c #8D4339",
".. c #8E4338",
"X. c #8E4339",
"o. c #8D4438",
"O. c #8E4439",
"+. c #8F4439",
"@. c #8F4539",
"#. c #8E443A",
"$. c #8F453A",
"%. c #8E453B",
"&. c #8F463B",
"*. c #8F463C",
"=. c #8F473C",
"-. c #8D443A",
";. c #904237",
":. c #914438",
">. c #934439",
",. c #90443A",
"<. c #90453A",
"1. c #91453A",
"2. c #91453B",
"3. c #92453A",
"4. c #92453B",
"5. c #90463B",
"6. c #91463B",
"7. c #92463B",
"8. c #93463B",
"9. c #94463B",
"0. c #94463A",
"q. c #91463C",
"w. c #91473C",
"e. c #91473D",
"r. c #90473D",
"t. c #92473C",
"y. c #93473C",
"u. c #92473D",
"i. c #93463C",
"p. c #94473C",
"a. c #95473C",
"s. c #95463C",
"d. c #96473C",
"f. c #96473D",
"g. c #92463C",
"h. c #91483D",
"j. c #92483D",
"k. c #93483D",
"l. c #92483E",
"z. c #93483E",
"x. c #93493E",
"c. c #93493F",
"v. c #95483D",
"b. c #96483D",
"n. c #97483D",
"m. c #94483E",
"M. c #94493E",
"N. c #95493E",
"B. c #94493F",
"V. c #95493F",
"C. c #96493F",
"Z. c #97483E",
"A. c #954A3F",
"S. c #964A3F",
"D. c #974A3F",
"F. c #94493E",
"G. c #98483E",
"H. c #99493F",
"J. c #99483E",
"K. c #98493E",
"L. c #954A40",
"P. c #964A40",
"I. c #974A40",
"U. c #964B40",
"Y. c #964A40",
"T. c #984A40",
"R. c #827B73",
"E. c #807F7A",
"W. c #817E79",
"Q. c #83827D",
"!. c #86847F",
"~. c #83827C",
"^. c #878480",
"/. c #878680",
"(. c #898781",
"). c #898681",
"_. c #8B8A84",
"`. c #8C8A84",
"'. c #918E87",
"]. c #928E88",
"[. c #928F89",
"{. c #95918A",
"}. c #99968F",
"|. c #9D9A92",
" X c #A29F96",
/* pixels */
"F S t 0 0 7 7 0 e D V t V H P V B e D H H H F G G G B 7 w t S H ^.]._.Q H A v P Y Y P Y R.E H e 6 0 V V t q e w 7 e V V t t F F ",
"E S 5 y - * - - - - - - - - > > ; - > f > > > f > > > * + 4 t S R ! J s u @ f f f f f f L.f f - ; ; > > - * - & - - : - % 4 G W.",
"^.C # ,.f.m.J.m.q.5.5.5...5.6.6.d.6.J.m.d.d.d.d.m.J.J.:.^ . 4 A S e @ ~ ( ..f.,.5.9.f.f.L.=.h.c.J.J.J.9.d.9.m.5.6.5.;._ / . D ^.",
"! D / L.L.L.m.L.c.c.m.c.&.&.c.A.A.A.m.T.A.A.x.x.m.A.m.o.~ ~ 4 S G 5 # L.{ { L.f.m.q.m.T.L.L.c.L.U.L.T.m.6.m.c.6.c.&.&.5.( # C ^.",
"Q J [ L.L.L.m.q.c.c.c.6.&.c.m.T.U.U.U.L.T.m.&.q.m.A.5.( ~   2 V S 3 / 5.q...L.L.m.L.f.L.L.L.q.L.m.T.m.6.5.q.o._ ........,./ b ! ",
"E.J / L.L.q.L.q.6.c.m.c.5.9.A.m.U.T.L.T.T.q.&.&.6.5.' ' ~   2 B A 2 # 5.q.q.f.L.L.L.T.L.L.q.q.q.m.U.m.o.&.5.( ' ' *.*...q./ x Q ",
"_.L / L.q.q.L.L.c.m.J.m.c.m.T.A.J.m.m.m.m.m.c.c.c._ ` ~ ~ ~ 2 t F 4 / _ &.f.q.m.L.L.L.f.%.q.q.L.m.m.m.&._ _ ` ( ..q.q.q.L./ x E.",
"_.I # L.L.L.L.f.m.A.m.m.c.m.m.T.m.c.c.c.m.m.L.m.c.&._ ( ( / 2 G F 2 / ( / 5.c.f.L.%.%.q...*.L.q.c.m.A.c.5._ o.5.q.q.,.*.L./ x ! ",
"~.K # c.U.U.A.6.m.m.m.5.m.m.m.A.A.c.=.&.m.m.m.m.q.%.%.;.>./ 2 F v 2 / ( ( ;.q.......{ *.q.L.L.*.=.c.J.m.m.o._ m.m.f.q.5.q./ l E ",
"! v / c.A.T.A.6.c.A.c.5.c.m.U.T.A.A.c.=.c.m.c.q.q.L.L.q.f./ 4 v A 4 # ( ( ....%.%...{ [ %.,.{ *.c.A.U.L.m.5.&.6.L.c.%.q.c./ 4 Y ",
"E v - ' 6.d.:.` :.5.9.5._ ;.5.5.6.:.:.0.&.5.;.;.f.f.s.;.( @ 0 A S 0 O ~ ( ( ( ,.;.;.( ( ,.,.,.( d.d.5.9.9.:._ 5.f.;...( / - t P ",
"R G e s u & & & & & : d d d d k k d d p d d d d u d u & 1 7 t F S t 4 1 + & + + & & + + - + & & & & d & & & % & d d d & y v S H ",
"Y G S t B V B B w 9 B U R Y ! E.~.! Y F F V G S S B B t w w t A A v r 0 9 9 6 6 , , , , 9 0 w 0 w e S A r 0 6 6 0 w B w S G D H ",
"e e e 8 e x e q e q x C P ! '.{.{.!.Q C x x v V x q e x e 4 4 4 4 4 2 2 2 2 2 2 2 2 2 2 4 w A S F v S t 8 8 2 2 2 2 q e v v v v ",
"[ { [ [ [ { [ { [ [ [ [ ; Z `.|.}.~.c ; [ [ [ { { { ) [ [ [ [ { / / / / / / # / #     # @ 1 e S S r 3 * [ [ [ ) ) [ [ { [ [ [ [ ",
"T.T.T.L.m.A.T.D.D.D.D.J.9.) R. X|.Y # 5.D.A.T.T.U.D.m.m.T.T.D.D.L.L.L.L.L.( *.q.( / ( ( ..# 4 S S 4 # 9.D.D.J.m.m.m.T.T.L.m.m.q.",
"L.T.m.m.U.m.A.m.m.m.J.T.U.[ T |.|.T ) x.A.m.A.U.T.A.m.m.A.A.m.m.m.m.m.T.m.q.&...{ ...._ ;./ 2 A t 4 / f.L.f.L.L.L.L.I.L.f.c.q.q.",
"L.L.m.c.m.m.A.m.m.m.m.T.A.[ T }.}.T ) m.m.A.m.m.m.D.m.c.D.m.m.m.m.m.m.L.L.m.q.&...5.q.&.../ 2 t G x # q.I.I.L.f.T.T.I.I.m.m.c.L.",
"T.J.m.m.q.c.m.d.c.m.f.m.m.[ Z {.{.L [ c.c.c.U.U.D.m.c.c.m.m.A.5.m.m.m.T.m.L.q.%.;.q.q...../ 2 F R b # L.L.L.L.L.L.I.I.L.L.m.q.c.",
"m.L.m.L.6.5.6.&.c.L.m.L.m.[ Z (.(.Z ) c.6.c.c.m.m.m.m.c.m.A.d.5.d.m.T.m.m.m.q.q.q.q.q.&.*.# l R ! D / q.T.L.L.T.I.L.I.I.m.m.c.c.",
"m.m.m.m.m.&._ ( ( f.L.L.T./ D _.(.J ) c.c.c.5.c.m.m.c.m.m.m.{ &.m.d.c.m.m.q.m.q.q.c.%.%.q.# C ~.W.D / L.m.q.%.L.T.m.T.T.m.m.A.m.",
"U.m.U.m.m.5._ / / ..q.q.L./ b _._.J = 6.m.m.5.m.c.c.m.m.c.q.{ ..6.c.6.6.c.f.L.q.q.L.c.m.q.) J !.!.Z [ L.L.q.%.q.m.c.m.m.L.m.m.m.",
"U.m.m.J.m.c.5.' ..%.*.q.q.# x E.~.C # 5.U.J.m.m.c.m.m.m.c.c.{ %.c.6.c.m.L.L.L.q.q.q.c.L.m.) J ).!.J / q.L.%.q.L.c.c.m.m.L.m.c.c.",
"o.5.9.9.5.:.' ( ( ..( ( / + r R R G d ) 5.:._ :.;.9.9.9.5._ / ( _ ' ' &.....5.....5...&./ d Y _.).Y d { &.' { ..' ' _ _ &.&._ ' ",
"m j s y $ $ y $ $ $ $ 1 z D F G ! E D 8 $ $ $ $ y s y s h i % $ $ y i h h h h h h y % $ 8 Y ~.).!.! P C h h h h s s h n n m Z M ",
"~.! U S w t t w 6 6 9 9 G Y G G U Y G r 6 6 9 9 r r B S H Y A t B F Y R Y H S A B t 9 9 B W E.! ! E Y U U U U F 0 w B S U Q.!.!.",
"~.! U x g z g g 5 1 < 1 3 8 g z z z z a 1 $ < 3 a g g C G E E E E.Q Y D C l 5 3 3 3 1 3 g c Z N c Z Z c c c c g 2 < 1 1 x Y ~.!.",
"Y G i ) { { &.{ { [ ' { ) ) ' &.{ &.&.&.&._ ) { { o.o.[ [ j Y W.~.R j = ) { &.=.{ ' _ &.o.) ) { o.&.=.{ { [ [ { ' ) / / = % V Y ",
"G q # m.T.q.m.m.c.m.m.d.c.9.m.d.L.T.T.T.T.m.c.6.x.A.A.T.5.# V E Q C # 5.D.D.D.T.T.T.m.m.f.5.q.c.m.T.T.m.m.L.m.m.5.5.' ' :.~ 7 B ",
"H x ) L.c.q.m.m.c.c.5._ o.5.m.5.m.L.m.m.U.U.c.c.c.m.A.m.&.) 5 Y ~.K ) c.d.A.A.A.m.m.U.m.5.5.c.c.m.m.c.c.m.m.m.c.9.:./ ~ ' / 2 B ",
"R b # m.m.m.m.L.m.5.5._ _ 5.9.5.q.5.q.c.m.m.m.m.c.c.m.m.6.) 8 R ).K ) c.m.A.D.T.m.5.c.m.m.m.m.c.c.m.m.c.m.L.m.c.9.&.' ~ ( / 2 D ",
"Y v # q.m.L.T.m.5.9.9.5.&.&.5.:.c.c.&.%.m.U.U.c.6.6.c.m.m.) l R ! Z [ m.m.A.T.A.c.q.&.m.m.m.m.c.q.c.m.m.m.d.5.m.9.5._ ' _ / 2 S ",
"V 8 ) m.J.m.J.5.5.5.5...' 5.5.5.q.c.q.h.q.L.q.q.q.q.L.L.Y./ x R ! C # c.L.L.m.q.*.*.*.*.L.q.q.%.L.L.L.L.L.m.5.m.m.m._ ' o./ 2 t ",
"t 2 ) 6.&.6.5.` &.&._ &./ _ 5.c.L.c.c.q.q.L.q.q.q.L.f.f.L./ 5 R ! b [ %.%.L.m.c.,.( ..*.L.q.%.f.L.L.c.m.m.c.5.m.m.m._ ( _ / 2 t ",
"A 4 ) 5.&.&.(   ~ ( ;.q...5.q.c.c.c.%.q.q.L.L.L.L.T.L.L.q.@ 5 R E b / %.c.q.c.c.*./ ( ( q.f.L.L.T.m.m.c.q.&.&.m.m.c.' / / X 4 t ",
"A 4 ) m.d.o./ ~ ~ _ 5.m.m.m.c.c.m.q...&.L.L.T.T.T.T.T.L...  4 A H C # L.m.m.c.6.*.( ( ( *.L.T.L.T.T.L.m.c.q.&.5.6.5._ &.;.  4 S ",
"G F i / { ) / ' / ( { { _ _ ' { &.{ / / { %.%.%.%.%.%.{ @ % w S D V i = { { ) { ( / / ( / L.( *.&...*.*./  .[ ) { / ( / # y r S ",
"G R D 0 x g 3 3 1 3 g c Z Z Z c g 3 < < 1 1 5 g g 3 1 1 4 w v D G F V e z g g 1 < < < < 1 1 1 1 1 3 3 a z z g g a 1 1 < 4 e A S ",
"r S H F H F F B r B F Q ~.!.(.!.H F t B r 9 w 9 9 9 9 9 9 w r t H U U H F U S B 9 6 , 9 0 r t t A t r A S t r r 0 9 6 6 9 0 r r ",
"i i p s h n h j h h n M L ~.].]._.! D l s i y % y % $ $ % % % % s h s h j n n h i $ $ y 5 0 A D F t 7 5 h i i y y y y % y y $ $ ",
"..;.q.;.;.q.q.;.5.9.5.5.' k ~.{.{.W.d / *.;.,...;._ ^ / ^ ( ` _ &.q.5.>.6.5.o._ 5.5.9._ / + w S S 0 o / 5.f.5._ ( ;.;.;.( ( ( ( ",
"f.L.L.q.L.L.T.T.m.U.T.T.L./ T }.|.T / L.L.L.L.q.9.5.&.' ( ;.;.o.q.L.T.T.T.T.m.c.m.m.m.6.L./ 5 A v 4 X 5.L.L.m.q.q.q.5..._ o.5.5.",
"L.L.q.f.q.m.L.L.U.T.L.U.L.[ L |.|.T / L.L.q...&.5._ c.6._ 5._ _ 5.6.m.m.m.A.m.c.c.c.m.6.q.# x F t 4 # 5.L.m.c.f.f.q.q._ _ 5.5.6.",
"L.L.L.L.L.L.L.q.m.T.m.m.L.[ L }.|.R./ q.%.q....._ o.5.m.m.5.( ' m.m.c.f.6.6.c.m.q.c.c.c.*.# q G A 2 / c.T.q.q.L.q.q.f...o.5.6.m.",
"L.m.m.L.L.m.L.5.q.m.c.m.m.) J }.}.T ) c.L.L.q.q._ &.5.J.m.m.&.( 5.m.c.5.m.q.m.m.m.m.c.m.c.) q Y D 2 / L.m.q.%.q.5.5.&._ 5.d.6.c.",
"m.f.L.J.m.L.q.&.%.c.c.c.m.) K {.'.K # q.L.L.L.T.5.c.m.m.c.q.&.&.5.&.c.m.c.m.m.c.&.c.c.U.m.) x S G 4 / f.L.%.%.L..._ _ ' _ 9.&.c.",
"m.m.L.L.L.m.q.q.c.c.&.q.c.= J _./.J # c.L.L.L.f.m.U.m.A.m.m.=.c.q.&.q.c.c.c.m.6.6.c.c.m.A.[ 5 t G l / L.L.%.q.c.../ ' ( ' 5.&.5.",
"c.L.T.T.L.L.L.c.%.&.h.h.c./ Z !.~.C ) f.m.c.c.L.m.T.T.T.A.A.c.6.5.q.q.c.6.c.c.6.c.m.c.m.m.) 8 D G x / L.L.c.%.%.' ( / ' ' _ 5.c.",
"m.U.L.T.U.A.m.A.c.c.c.c.' . P ~.!.D # 9.J.m.A.A.D.U.T.A.m.J.m.c.6.=.x.6.c.6.m.m.c.A.J.m...# x E U 0 / L.L.L.q.../ ( / ( ;.&.q.f.",
"[ { [ %.[ [ [ [ [ ) [ = - Z Q ~.E H c - [ [ [ [ [ { [ { [ [ [ [ [ [ [ [ ) = [ [ [ [ { [ f c G ! Y t 3 @ / [ [ # #     @ / # ) [ ",
"L T Y K K L L L D C K K Y ~.!.!.E R H V V C C C C C P J J P L D P L C D D K J L L L J P Y E E E P S w 7 4 2 2 2 2 2 2 2 l v v D ",
"_.`.~.Y W W W E W U U Y R K W W H F D D G H U H U U Y W W ~.(.~._.(.~.Q Q W Q E ! ! W W E Y H S t w e w , , , , , , , w F H E ~.",
"/.~.D h d d d k d d k d d d k d d u u d d d k d d d d d h H ~.(.{.`.Y m k k k k k k k k k d u & + & & & + + + + & & & u s C E ~.",
"~.H - ( ;.5.9.9.9.9.9.5.:.6.9.9.9.5.9.9.9.9.5.5.0.6.9.&./ - G ~.(.E : ( 5.9.9.9.=.o.:.d.9.9.5.;.( s.L.( ( I.s.>.>.>.5.5._ - R /.",
"~.b # c.L.U.U.L.J.T.T.U.U.m.J.U.c.c.{ &.m.T.m.c.=.x.x.U.m.) l E.~.J ) m.U.U.U.U.c.h.=.c.L.L.c.&.L.( L.L.T.L.,.L.J.m.L.m.m.) J ~.",
"E x # c.L.T.L.L.m.L.m.c.c.A.U.U.c.q.&.&.q.m.c.c.=.6.x.U.D.[ g W ~.C ) 6.A.A.m.c.c.6.5.c.m.q.5.5.2.L.L.L.T.I.s.L.m.m.c.m.T.[ C ! ",
"H 8 ) m.m.L.L.L.c.m.m.m.c.q.m.m.c.&.&.{ ' c.c.&.f.L.L.q.L./ x Y H x / %.c.c.L.m.c.c.q.5.c.q.c.c.m.m.c.m.q.q.q.c.m.m.&.%.c.) C E ",
"t 5 ) m.c.c.q.%.c.L.m.m.5.c.q.c.q..._ ' &.c.A.m.L.L.L.L.q./ l R Y v ) %.%.L.q.L.m.q.q.c.m.m.m.m.J.m.c.5...{ { L.m.D.c.c.5.# C H ",
"S 5 ) T.L.c.q.%.q.c.m.m.c.m.c.5.q.{ ' _ &.m.m.J.L.T.T.L.L.# x R R.C [ c.c.c.q.c.5.5.5.c.L.T.L.T.T.U.m...( ' { q.A.m.m.A.q.# b F ",
"S 5 ) L.T.5.%.c.q.c.c.c.m.m.6.c.c.c.' _ m.m.m.T.L.T.L.L.%.# b W.(.L ) c.m.m.c.m.c.&.c.m.L.T.T.L.U.m.m.../ { %.q.c.m.A.m.L.# 5 F ",
"S 4 / f.m.c.c.L.L.m.L.m.A.m.c.c.A.c.=.&.6.m.A.U.L.L.L.L.m.) C !.[.L ) m.L.m.m.m.m.6.c.m.T.m.U.A.U.A.m.m.f.f.f.q.L.,.L.L.L./ 4 F ",
"S 0 # ( ;.m.J.J.T.J.J.m.J.J.d.m.d.&.&.5.d.J.D.D.J.J.f.J.5.- D `.[.T ; ;.m.d.f.m.5.o.5.m.J.J.J.J.J.m.m.J.T.I.f.J.J.J.I.I...@ 0 S ",
"S t 4 + @ * - - ; > > > > f > : : - - - * - - f L.f ; - & 8 F ~.[.Q.K k f > > - : : d L.f f f > > > ; ; - - f - @ f @ f & 4 t S ",
"S S t r 0 7 8 0 w D V e v G H D V V D e V t 9 A H H V 0 0 t S Q [.[.~.W H H V H Y Y U Y W E Y D V B e t e v t 7 4 0 w t r t S D "
};
